<svg id="Layer_1" data-name="Layer 1" xmlns="http://www.w3.org/2000/svg" viewBox="0 0 1775.63 782.9"><defs><style>.cls-1{fill:#070707;}.cls-2,.cls-3{fill:#39f;}.cls-3,.cls-5{stroke:#621342;}.cls-3{stroke-width:0.9px;}.cls-4{fill:#fefefe;}.cls-5{fill:#621342;stroke-width:2.36px;}.cls-6{fill:#f73723;}.cls-7{fill:#8a82f4;}.cls-8{fill:#050505;}.cls-9{fill:#4f129e;}.cls-10{stroke:#070707;}.cls-11{fill:#d7d3ca;}.cls-12,.cls-14,.cls-15{stroke:#000;}.cls-13,.cls-14{fill:#0c0b0c;}.cls-14,.cls-15{stroke-width:8.86px;}.cls-16{fill:#1e90ff;}</style></defs><title>dog-peeking</title><g id="Layer_1-2" data-name="Layer_1"><path d="M1471,716c48-2,99,0,147,2s96,4,143,9c44,5,165,26,182,75,33,96-95,216-163,269l-29,24-8-37c-14-66-41-135-85-186-48-55-124-90-192-110l-130-38Z" transform="translate(-413.43 -647.28)"/><path class="cls-1" d="M911,1345a454.54,454.54,0,0,1-62-103c-37-84-17-225,13-308,17-48,41-95,75-134,45-51,109-86,172-110,78-29,197-52,281-39,110,18,325,173,361,280,29,83,28,193,10,279-11,51-31,96-61,135Z" transform="translate(-413.43 -647.28)"/><path class="cls-2" d="M1472,740c64-4,220,3,287,10,84,10,154,36,162,60,26,75-97,195-173,255-15-71-26-155-73-209C1627,800,1550,762,1472,740Z" transform="translate(-413.43 -647.28)"/><path class="cls-1" d="M1170,721c-69,20-145,55-192,110-45,51-72,120-86,186l-7,37-30-23c-68-54-196-174-162-270,17-49,137-70,181-75,47-5,96-7,143-9,48-2,99-4,147-1l136,7Z" transform="translate(-413.43 -647.28)"/><path class="cls-3" d="M1163,699c-64-4-220,3-286,11-84,9-154,35-162,59-27,76,78,183,155,243,14-71,44-143,90-197C1009,760,1086,722,1163,699Z" transform="translate(-413.43 -647.28)"/><path class="cls-2" d="M1670,1345c47-55,61-107,68-140,9-43,26-165-9-266-34-102-246-249-343-265-97-15-328,22-431,141-104,120-122,333-85,417,13,30,35,72,72,113Z" transform="translate(-413.43 -647.28)"/><path class="cls-4" d="M1505,724c-45-26-88-45-119-50-37-5-93-4-154,7,25,81,29,192,26,293-5,149,95,95,115-3C1383,922,1445,817,1505,724Z" transform="translate(-413.43 -647.28)"/><path class="cls-4" d="M1670,1345c27-32,43-63,54-89-1-2-3-2-5-2-26,6-191,11-258-37-64-47-132-70-156-68-24-2-92,21-156,68-67,48-231,43-257,37-6-1-7,5-4,15,13,23,30,50,54,76Z" transform="translate(-413.43 -647.28)"/><path class="cls-5" d="M1373,1328v39a61.67,61.67,0,0,1-62,62h-11c-35,0-62-27-62-62v-47c15-4,55-16,61-23,7-10,25,21,43,24C1352,1323,1363,1326,1373,1328Z" transform="translate(-413.43 -647.28)"/><path class="cls-6" d="M1358,1321v46c0,27-21,48-47,48h-11a48,48,0,0,1-48-48v-46h19l34-28,28,28Z" transform="translate(-413.43 -647.28)"/><path class="cls-2" d="M1670,1345c47-55,61-107,68-140,9-43,26-165-9-266-19-56-111-151-200-200,53,128,122,342,70,471-22,53-49,97-80,135Z" transform="translate(-413.43 -647.28)"/><ellipse class="cls-7" cx="1154.57" cy="406.72" rx="90" ry="92"/><ellipse class="cls-7" cx="670.57" cy="399.72" rx="90" ry="92"/><path class="cls-8" d="M1031,791c-16,21-32,42-49,63-10,12-21,25-32,38-6,7-16,20-24,24-17,9-37,1-51-8-19-13-37-32-51-49-16-20-30-49-9-70,7-8,17-12,27-14,10-3,21-5,31-7a506.75,506.75,0,0,1,54-9c20-3,40-6,60-6,16-1,40,0,46,18a22.08,22.08,0,0,1,0,16l-1,2Z" transform="translate(-413.43 -647.28)"/><path class="cls-4" d="M1016,780s-85,112-99,120-46-11-79-53-5-51,9-55S1026,754,1016,780Z" transform="translate(-413.43 -647.28)"/><ellipse class="cls-9" cx="1148.57" cy="406.72" rx="73" ry="74"/><circle class="cls-4" cx="1136.57" cy="386.72" r="16"/><ellipse class="cls-9" cx="666.57" cy="406.72" rx="73" ry="74"/><circle class="cls-4" cx="678.57" cy="386.72" r="16"/><path class="cls-10" d="M1318,1123s51,2,59,20c9,17-38,52-71,52C1253,1195,1164,1116,1318,1123Z" transform="translate(-413.43 -647.28)"/><path class="cls-11" d="M1670,1345a303.12,303.12,0,0,0,54-92c-15,3-35,5-63,5-38,1-64-2-82-5a562.59,562.59,0,0,1-64,92Z" transform="translate(-413.43 -647.28)"/><path class="cls-12" d="M421.93,1324.41h813v25h-813c-5,0-8-6-8-12h0C413.93,1330.41,416.93,1324.41,421.93,1324.41Zm954.64,0h804c5,0,8,6,8,13h0c0,6-3,12-8,12h-804Z" transform="translate(-413.43 -647.28)"/><path class="cls-13" d="M1603,847c-3-6-4-13-1-20,6-18,30-18,47-18,19,1,40,4,59,7s37,6,55,10c10,2,21,4,31,7,6,2,13,4,18,7a55,55,0,0,1,9,7c21,21,6,50-9,70-13,16-27,33-43,46-13,11-30,22-48,17a23.71,23.71,0,0,1-15-9c-7-7-14-15-21-23l-30-36c-16-21-33-41-50-62l-1-2Z" transform="translate(-413.43 -647.28)"/><path class="cls-4" d="M1619,839s83,103,100,120c16,16,45-11,79-53,33-42,5-52-9-56S1604,809,1619,839Z" transform="translate(-413.43 -647.28)"/><path class="cls-14" d="M1138,1268c27,32,84,66,126,49,27-11,38-36,40-39s3,5,0,21c0,3-31,34-74,31-41-4-94-36-95-49C1134,1274,1138,1268,1138,1268Z" transform="translate(-413.43 -647.28)"/><path class="cls-15" d="M1474,1268c-27,32-83,66-126,49-26-11-38-36-40-39s-3,5,0,21c0,3,32,34,74,31,42-4,94-36,95-49C1478,1274,1474,1268,1474,1268Z" transform="translate(-413.43 -647.28)"/><rect class="cls-15" x="885.57" y="511.72" width="12.54" height="138.2"/><path class="cls-15" d="M1305,1232h.54c3.32,0,6,.9,6,2v134.2c0,1.11-2.68,2-6,2H1305c-3.31,0-6-.89-6-2V1234C1299,1232.9,1301.69,1232,1305,1232Z" transform="translate(-413.43 -647.28)"/><path class="cls-13" d="M846,1344a27.51,27.51,0,0,1-15,8c-19,6-36,2-49-10a43.33,43.33,0,0,1-20,11c-24,3-49-10-55-34-5-20,1-50,10-68,19-40,58-56,101-56h1c49,2,104,37,112,88a84.28,84.28,0,0,1-5,42C914,1354,870,1362,846,1344Z" transform="translate(-413.43 -647.28)"/><path class="cls-16" d="M818,1213c59,2,112,55,92,106-8,19-42,22-54,10-13-12-13-24-13-24s1,26-16,30c-17,5-30,0-38-13-9-14-7-17-7-17s-8,28-23,30c-15,3-31-6-35-20C721,1300,719,1214,818,1213Z" transform="translate(-413.43 -647.28)"/><path class="cls-13" d="M1799,1344a27.51,27.51,0,0,1-15,8c-19,6-36,2-49-10-6,5-12,9-20,11-24,3-49-10-55-34-5-20,1-50,10-68,19-40,58-56,100-56h1c50,2,104,37,113,88a84.28,84.28,0,0,1-5,42C1867,1354,1822,1362,1799,1344Z" transform="translate(-413.43 -647.28)"/><path class="cls-16" d="M1771,1213c59,2,112,55,91,106-7,19-41,22-54,10s-13-24-13-24,1,26-16,30c-17,5-29,0-38-13-8-14-6-17-6-17s-8,28-23,30c-15,3-31-6-35-20C1673,1300,1672,1214,1771,1213Z" transform="translate(-413.43 -647.28)"/><path class="cls-4" d="M1177,745s33,40,34,87c2,47-12,102-26,43S1149,783,1177,745Z" transform="translate(-413.43 -647.28)"/><path class="cls-4" d="M1510,796s-44,24-54,67-22,42-15,47C1450,918,1553,801,1510,796Z" transform="translate(-413.43 -647.28)"/></g></svg>